<?xml version="1.0" encoding="utf-8"?>
<!-- Generator: Adobe Illustrator 26.2.1, SVG Export Plug-In . SVG Version: 6.00 Build 0)  -->
<svg version="1.1" id="圖層_1" xmlns="http://www.w3.org/2000/svg" xmlns:xlink="http://www.w3.org/1999/xlink" x="0px" y="0px"
	 viewBox="0 0 48 48" enable-background="new 0 0 48 48" xml:space="preserve">
<g>
	<g>
		<g>
			<linearGradient id="SVGID_1_" gradientUnits="userSpaceOnUse" x1="14.2984" y1="29.625" x2="33.7954" y2="29.625">
				<stop  offset="0" style="stop-color:#46B0BB"/>
				<stop  offset="1" style="stop-color:#08C1F2"/>
			</linearGradient>
			<path fill="url(#SVGID_1_)" d="M31,25.4c-0.7,3.2-3.6,5.6-7,5.6s-6.2-2.4-6.9-5.6h-2.8c0.7,4.8,4.8,8.4,9.7,8.4s9.1-3.7,9.8-8.4
				H31z"/>
		</g>
	</g>
	<g>
		<g>
			
				<linearGradient id="SVGID_00000062879545643666935050000015724191815097876630_" gradientUnits="userSpaceOnUse" x1="0" y1="36.7031" x2="48" y2="36.7031">
				<stop  offset="0" style="stop-color:#46B0BB"/>
				<stop  offset="1" style="stop-color:#08C1F2"/>
			</linearGradient>
			<path fill="url(#SVGID_00000062879545643666935050000015724191815097876630_)" d="M36.6,25.4c-0.7,6.3-6.1,11.2-12.6,11.2
				c-6.5,0-11.8-4.9-12.5-11.2H0v1.4c0,0.6,0.4,1.1,1,1.3L6.7,30c0.2,0.7,0.5,1.3,0.8,1.9l-2.7,5.4c-0.3,0.5-0.2,1.2,0.3,1.6l4,4
				c0.4,0.4,1.1,0.5,1.6,0.3l5.4-2.7c0.6,0.3,1.2,0.5,1.9,0.8l1.9,5.8c0.2,0.6,0.7,1,1.3,1h5.7c0.6,0,1.1-0.4,1.3-1l1.9-5.8
				c0.7-0.2,1.3-0.5,1.9-0.8l5.4,2.7c0.5,0.3,1.2,0.2,1.6-0.3l4-4c0.4-0.4,0.5-1.1,0.3-1.6l-2.7-5.4c0.3-0.6,0.5-1.2,0.8-1.9
				l5.7-1.9c0.6-0.2,1-0.7,1-1.3v-1.4H36.6z"/>
		</g>
	</g>
	<g>
		<g>
			
				<linearGradient id="SVGID_00000174565377205435155990000015736360351313292201_" gradientUnits="userSpaceOnUse" x1="20.0403" y1="26.8125" x2="28.0535" y2="26.8125">
				<stop  offset="0" style="stop-color:#46B0BB"/>
				<stop  offset="1" style="stop-color:#08C1F2"/>
			</linearGradient>
			<path fill="url(#SVGID_00000174565377205435155990000015736360351313292201_)" d="M20,25.4c0.6,1.6,2.1,2.8,4,2.8
				c1.8,0,3.5-1.2,4.1-2.8H20z"/>
		</g>
	</g>
	<g>
		<g>
			
				<linearGradient id="SVGID_00000040576280091024823020000014808540001011910326_" gradientUnits="userSpaceOnUse" x1="18.375" y1="5.625" x2="29.7188" y2="5.625">
				<stop  offset="0" style="stop-color:#46B0BB"/>
				<stop  offset="1" style="stop-color:#08C1F2"/>
			</linearGradient>
			<path fill="url(#SVGID_00000040576280091024823020000014808540001011910326_)" d="M24,0c-3.1,0-5.6,2.5-5.6,5.6s2.5,5.6,5.6,5.6
				c3.1,0,5.7-2.5,5.7-5.6S27.1,0,24,0z"/>
		</g>
	</g>
	<g>
		<g>
			
				<linearGradient id="SVGID_00000157288345193368266810000012649302943692780735_" gradientUnits="userSpaceOnUse" x1="32.5312" y1="5.625" x2="43.7813" y2="5.625">
				<stop  offset="0" style="stop-color:#46B0BB"/>
				<stop  offset="1" style="stop-color:#08C1F2"/>
			</linearGradient>
			<path fill="url(#SVGID_00000157288345193368266810000012649302943692780735_)" d="M38.2,0c-3.1,0-5.6,2.5-5.6,5.6
				s2.5,5.6,5.6,5.6c3.1,0,5.6-2.5,5.6-5.6S41.3,0,38.2,0z"/>
		</g>
	</g>
	<g>
		<g>
			
				<linearGradient id="SVGID_00000138550194218101340820000017776338624201703087_" gradientUnits="userSpaceOnUse" x1="4.3125" y1="5.625" x2="15.5625" y2="5.625">
				<stop  offset="0" style="stop-color:#46B0BB"/>
				<stop  offset="1" style="stop-color:#08C1F2"/>
			</linearGradient>
			<path fill="url(#SVGID_00000138550194218101340820000017776338624201703087_)" d="M9.9,0C6.8,0,4.3,2.5,4.3,5.6s2.5,5.6,5.6,5.6
				c3.1,0,5.6-2.5,5.6-5.6S13,0,9.9,0z"/>
		</g>
	</g>
	<g>
		<g>
			
				<linearGradient id="SVGID_00000149356144349282952920000016013009590357761185_" gradientUnits="userSpaceOnUse" x1="31.629" y1="17.5726" x2="48" y2="17.5726">
				<stop  offset="0" style="stop-color:#46B0BB"/>
				<stop  offset="1" style="stop-color:#08C1F2"/>
			</linearGradient>
			<path fill="url(#SVGID_00000149356144349282952920000016013009590357761185_)" d="M43,12.6c-1.4,0.9-3,1.5-4.8,1.5
				c-1.8,0-3.4-0.6-4.8-1.5c-0.6,0.4-1.2,0.8-1.7,1.2c2.7,2,4.6,5.2,5,8.8H48v-1.4C48,17.5,45.9,14.2,43,12.6z"/>
		</g>
	</g>
	<g>
		<g>
			
				<linearGradient id="SVGID_00000013880739344997389010000013167326854226957698_" gradientUnits="userSpaceOnUse" x1="14.2565" y1="18.3281" x2="33.8372" y2="18.3281">
				<stop  offset="0" style="stop-color:#46B0BB"/>
				<stop  offset="1" style="stop-color:#08C1F2"/>
			</linearGradient>
			<path fill="url(#SVGID_00000013880739344997389010000013167326854226957698_)" d="M24,14.1c-5,0-9.1,3.8-9.7,8.5h19.6
				C33.2,17.8,29,14.1,24,14.1z"/>
		</g>
	</g>
	<g>
		<g>
			
				<linearGradient id="SVGID_00000089534198247448668020000003928809521580977305_" gradientUnits="userSpaceOnUse" x1="0" y1="17.5726" x2="16.4648" y2="17.5726">
				<stop  offset="0" style="stop-color:#46B0BB"/>
				<stop  offset="1" style="stop-color:#08C1F2"/>
			</linearGradient>
			<path fill="url(#SVGID_00000089534198247448668020000003928809521580977305_)" d="M14.7,12.6c-1.4,0.9-3,1.5-4.8,1.5
				c-1.8,0-3.4-0.6-4.8-1.5c-3,1.7-5.1,5-5.1,8.6v1.4h11.4c0.4-3.6,2.3-6.8,5-8.8C15.9,13.3,15.3,12.9,14.7,12.6z"/>
		</g>
	</g>
</g>
</svg>
