<?xml version="1.0" encoding="utf-8"?>
<!-- Generator: Adobe Illustrator 26.2.1, SVG Export Plug-In . SVG Version: 6.00 Build 0)  -->
<svg version="1.1" id="圖層_1" xmlns="http://www.w3.org/2000/svg" xmlns:xlink="http://www.w3.org/1999/xlink" x="0px" y="0px"
	 viewBox="0 0 48 48" enable-background="new 0 0 48 48" xml:space="preserve">
<g>
	<linearGradient id="SVGID_1_" gradientUnits="userSpaceOnUse" x1="19.7813" y1="11.25" x2="28.2188" y2="11.25">
		<stop  offset="0" style="stop-color:#46B0BB"/>
		<stop  offset="1" style="stop-color:#08C1F2"/>
	</linearGradient>
	<path fill="url(#SVGID_1_)" d="M24,7c-2.3,0-4.2,1.9-4.2,4.2c0,2.3,1.9,4.2,4.2,4.2c2.3,0,4.2-1.9,4.2-4.2C28.2,8.9,26.3,7,24,7z"
		/>
	
		<linearGradient id="SVGID_00000031188627000879415650000003044875906075523487_" gradientUnits="userSpaceOnUse" x1="12.75" y1="16.2188" x2="35.25" y2="16.2188">
		<stop  offset="0" style="stop-color:#46B0BB"/>
		<stop  offset="1" style="stop-color:#08C1F2"/>
	</linearGradient>
	<path fill="url(#SVGID_00000031188627000879415650000003044875906075523487_)" d="M24,0c-6.2,0-11.2,5-11.2,11.2
		c0,2.1,0.6,4.2,1.7,6L24,32.4l9.5-15.2c1.1-1.8,1.7-3.9,1.7-6C35.3,5,30.2,0,24,0z M24,18.3c-3.9,0-7-3.2-7-7c0-3.9,3.2-7,7-7
		c3.9,0,7,3.2,7,7C31,15.1,27.9,18.3,24,18.3z"/>
	
		<linearGradient id="SVGID_00000020382273345181601060000008254517623597742755_" gradientUnits="userSpaceOnUse" x1="17.1559" y1="43.7344" x2="30.8394" y2="43.7344">
		<stop  offset="0" style="stop-color:#46B0BB"/>
		<stop  offset="1" style="stop-color:#08C1F2"/>
	</linearGradient>
	<path fill="url(#SVGID_00000020382273345181601060000008254517623597742755_)" d="M17.2,48h13.7l-1.1-8.5H18.2L17.2,48z"/>
	
		<linearGradient id="SVGID_00000169518287294404386120000007864448119069631663_" gradientUnits="userSpaceOnUse" x1="18.5618" y1="33.4975" x2="23.335" y2="33.4975">
		<stop  offset="0" style="stop-color:#46B0BB"/>
		<stop  offset="1" style="stop-color:#08C1F2"/>
	</linearGradient>
	<path fill="url(#SVGID_00000169518287294404386120000007864448119069631663_)" d="M18.6,36.7h4.8l-4-6.3L18.6,36.7z"/>
	
		<linearGradient id="SVGID_00000040563989684960461260000005410132542368263851_" gradientUnits="userSpaceOnUse" x1="31.1517" y1="32.4375" x2="43.3129" y2="32.4375">
		<stop  offset="0" style="stop-color:#46B0BB"/>
		<stop  offset="1" style="stop-color:#08C1F2"/>
	</linearGradient>
	<path fill="url(#SVGID_00000040563989684960461260000005410132542368263851_)" d="M32.2,36.7h11.1l-3.5-8.4h-8.6L32.2,36.7z"/>
	
		<linearGradient id="SVGID_00000064343434951598882210000011487930724859609753_" gradientUnits="userSpaceOnUse" x1="4.6871" y1="32.4375" x2="16.7824" y2="32.4375">
		<stop  offset="0" style="stop-color:#46B0BB"/>
		<stop  offset="1" style="stop-color:#08C1F2"/>
	</linearGradient>
	<path fill="url(#SVGID_00000064343434951598882210000011487930724859609753_)" d="M4.7,36.7h11l1.1-8.4H8.2L4.7,36.7z"/>
	
		<linearGradient id="SVGID_00000118376121644785305210000015344746298924036001_" gradientUnits="userSpaceOnUse" x1="24.6651" y1="33.5379" x2="29.3973" y2="33.5379">
		<stop  offset="0" style="stop-color:#46B0BB"/>
		<stop  offset="1" style="stop-color:#08C1F2"/>
	</linearGradient>
	<path fill="url(#SVGID_00000118376121644785305210000015344746298924036001_)" d="M24.7,36.7h4.7l-0.8-6.2L24.7,36.7z"/>
	
		<linearGradient id="SVGID_00000133497140094915254700000003984184655128984212_" gradientUnits="userSpaceOnUse" x1="0" y1="43.7344" x2="15.3761" y2="43.7344">
		<stop  offset="0" style="stop-color:#46B0BB"/>
		<stop  offset="1" style="stop-color:#08C1F2"/>
	</linearGradient>
	<path fill="url(#SVGID_00000133497140094915254700000003984184655128984212_)" d="M15.4,39.5H3.5L0,48h14.3L15.4,39.5z"/>
	
		<linearGradient id="SVGID_00000024679857690670988590000017620284685315380630_" gradientUnits="userSpaceOnUse" x1="32.5943" y1="43.7344" x2="48" y2="43.7344">
		<stop  offset="0" style="stop-color:#46B0BB"/>
		<stop  offset="1" style="stop-color:#08C1F2"/>
	</linearGradient>
	<path fill="url(#SVGID_00000024679857690670988590000017620284685315380630_)" d="M44.5,39.5H32.6l1.1,8.5H48L44.5,39.5z"/>
</g>
</svg>
