<?xml version="1.0" encoding="utf-8"?>
<!-- Generator: Adobe Illustrator 26.2.1, SVG Export Plug-In . SVG Version: 6.00 Build 0)  -->
<svg version="1.1" id="圖層_1" xmlns="http://www.w3.org/2000/svg" xmlns:xlink="http://www.w3.org/1999/xlink" x="0px" y="0px"
	 viewBox="0 0 32 32" enable-background="new 0 0 32 32" xml:space="preserve">
<g>
	<path fill="#C5C5C5" d="M18.7,19.6c-0.8,0.5-1.7,0.8-2.7,0.8c-1,0-1.9-0.3-2.7-0.8L0.2,10.9c-0.1,0-0.1-0.1-0.2-0.2V25
		C0,26.7,1.3,28,2.9,28h26.1c1.6,0,2.9-1.3,2.9-2.9V10.7c-0.1,0.1-0.1,0.1-0.2,0.2L18.7,19.6z"/>
	<path fill="#C5C5C5" d="M1.3,9.3L14.4,18c0.5,0.3,1.1,0.5,1.6,0.5c0.6,0,1.1-0.2,1.6-0.5l13.1-8.7C31.5,8.8,32,7.9,32,7
		C32,5.3,30.7,4,29.1,4H2.9C1.3,4,0,5.3,0,7C0,7.9,0.5,8.8,1.3,9.3z"/>
</g>
</svg>
