<?xml version="1.0" encoding="utf-8"?>
<!-- Generator: Adobe Illustrator 26.2.1, SVG Export Plug-In . SVG Version: 6.00 Build 0)  -->
<svg version="1.1" id="圖層_1" xmlns="http://www.w3.org/2000/svg" xmlns:xlink="http://www.w3.org/1999/xlink" x="0px" y="0px"
	 viewBox="0 0 48 48" enable-background="new 0 0 48 48" xml:space="preserve">
<g>
	<linearGradient id="SVGID_1_" gradientUnits="userSpaceOnUse" x1="0" y1="11.2559" x2="34.4425" y2="11.2559">
		<stop  offset="0" style="stop-color:#46B0BB"/>
		<stop  offset="1" style="stop-color:#08C1F2"/>
	</linearGradient>
	<path fill="url(#SVGID_1_)" d="M12.2,0c1,0.2,2,0.4,2.9,0.7c1.6,0.5,3,1.5,4.2,2.6c5.1,5,10.1,10.1,15.1,15.1c0,0,0.1,0.1,0.1,0.1
		c-1.3,1.3-2.6,2.6-4,4c-0.1-0.1-0.2-0.2-0.3-0.3c-4.9-4.9-9.9-9.9-14.8-14.8c-2-2-4.8-2.4-7.1-1C5.3,8.3,4.7,12.4,7,15
		c0.8,0.9,1.8,1.8,2.6,2.7c0.1,0.1,0.3,0.2,0.4,0.3c-1.4,1.4-2.7,2.7-4,4c-2.1-2.2-4.6-4.1-5.5-7.3C0.3,13.8,0.2,13,0,12.2
		c0-0.6,0-1.2,0-1.9c0-0.2,0.1-0.3,0.1-0.5c0.7-4.5,3.2-7.5,7.4-9.1C8.4,0.3,9.4,0.2,10.3,0C10.9,0,11.6,0,12.2,0z"/>
	
		<linearGradient id="SVGID_00000121974795186721480770000006169595229601835688_" gradientUnits="userSpaceOnUse" x1="25.9658" y1="16.9412" x2="48" y2="16.9412">
		<stop  offset="0" style="stop-color:#46B0BB"/>
		<stop  offset="1" style="stop-color:#08C1F2"/>
	</linearGradient>
	<path fill="url(#SVGID_00000121974795186721480770000006169595229601835688_)" d="M48,12.2c-0.2,1-0.4,2-0.7,2.9
		c-0.5,1.6-1.5,3-2.6,4.2c-4.8,4.8-9.7,9.7-14.5,14.5c-0.1,0.1-0.1,0.1-0.1,0.1c-1.3-1.3-2.6-2.6-4-4.1c0.1-0.1,0.3-0.1,0.4-0.3
		c4.7-4.7,9.5-9.5,14.2-14.2c2-2,2.4-4.8,0.9-7.1C39.7,5.3,35.6,4.7,33,7c-1,1-2,2-2.9,3c-1.4-1.4-2.7-2.7-4-4
		c2.1-2.1,4.1-4.6,7.3-5.5C34.2,0.3,35,0.2,35.8,0c0.6,0,1.2,0,1.9,0c0.2,0,0.3,0.1,0.5,0.1c4.5,0.7,7.6,3.2,9.2,7.4
		c0.3,0.9,0.5,1.9,0.7,2.8C48,10.9,48,11.6,48,12.2z"/>
	
		<linearGradient id="SVGID_00000032619222274526928000000011228065856518290107_" gradientUnits="userSpaceOnUse" x1="14.1138" y1="36.9838" x2="48" y2="36.9838">
		<stop  offset="0" style="stop-color:#46B0BB"/>
		<stop  offset="1" style="stop-color:#08C1F2"/>
	</linearGradient>
	<path fill="url(#SVGID_00000032619222274526928000000011228065856518290107_)" d="M35.8,48c-0.8-0.2-1.6-0.3-2.4-0.5
		c-1.8-0.5-3.3-1.5-4.6-2.8c-4.8-4.8-9.7-9.7-14.5-14.5c-0.1-0.1-0.1-0.1-0.2-0.2c1.3-1.3,2.6-2.6,4-4c0.1,0.1,0.2,0.3,0.3,0.4
		c4.7,4.7,9.5,9.5,14.2,14.2c2,2,4.8,2.3,7.1,0.9c3-1.8,3.6-5.9,1.2-8.5c-0.8-0.9-1.7-1.8-2.6-2.7c-0.1-0.1-0.3-0.2-0.4-0.3
		c1.4-1.4,2.7-2.7,4-4c1.8,1.9,4,3.6,5.1,6.2c0.4,1,0.6,2.1,0.9,3.1c0,0.2,0.1,0.3,0.1,0.5c0,0.6,0,1.3,0,1.9c0,0.2-0.1,0.3-0.1,0.5
		c-0.7,4.5-3.2,7.5-7.4,9.1c-0.9,0.3-1.9,0.5-2.8,0.7C37.1,48,36.4,48,35.8,48z"/>
	
		<linearGradient id="SVGID_00000016780971160242852090000012802852192661880246_" gradientUnits="userSpaceOnUse" x1="0" y1="31.0601" x2="22.0315" y2="31.0601">
		<stop  offset="0" style="stop-color:#46B0BB"/>
		<stop  offset="1" style="stop-color:#08C1F2"/>
	</linearGradient>
	<path fill="url(#SVGID_00000016780971160242852090000012802852192661880246_)" d="M0,35.8c0.2-1,0.4-2,0.7-2.9
		c0.5-1.6,1.5-3,2.6-4.2c4.8-4.8,9.7-9.7,14.5-14.5c0.1-0.1,0.1-0.1,0.1-0.1c1.3,1.3,2.6,2.6,4,4c-0.1,0.1-0.3,0.1-0.4,0.3
		c-4.7,4.7-9.5,9.5-14.2,14.2c-2,2-2.4,4.8-0.9,7.1c1.8,2.9,5.9,3.5,8.5,1.2c1-1,2-2,2.9-3c1.4,1.4,2.7,2.7,4,4
		c-2.1,2.1-4.1,4.6-7.3,5.5c-0.8,0.2-1.6,0.4-2.5,0.5c-0.6,0-1.3,0-1.9,0c-0.2,0-0.3-0.1-0.5-0.1c-4.5-0.7-7.6-3.2-9.2-7.4
		c-0.3-0.9-0.5-1.9-0.7-2.8C0,37.1,0,36.4,0,35.8z"/>
</g>
</svg>
