<?xml version="1.0" encoding="utf-8"?>
<!-- Generator: Adobe Illustrator 26.2.1, SVG Export Plug-In . SVG Version: 6.00 Build 0)  -->
<svg version="1.1" id="圖層_1" xmlns="http://www.w3.org/2000/svg" xmlns:xlink="http://www.w3.org/1999/xlink" x="0px" y="0px"
	 viewBox="0 0 32 32" enable-background="new 0 0 32 32" xml:space="preserve">
<g>
	<path fill="#C5C5C5" d="M27.6,22.3c-1.9-1.7-3.9-2.7-5.8-1l-1.1,1c-0.8,0.7-2.4,4.1-8.4-2.8s-2.4-8-1.6-8.7l1.1-1
		c1.9-1.7,1.2-3.7-0.2-5.9l-0.8-1.3C9.4,0.5,7.9-0.9,6,0.7L5,1.6C4.1,2.2,1.8,4.2,1.2,8c-0.7,4.5,1.5,9.7,6.4,15.5
		c5,5.7,9.8,8.6,14.4,8.5c3.8,0,6.1-2.1,6.9-2.8l1-0.9c1.9-1.7,0.7-3.3-1.2-5L27.6,22.3z"/>
</g>
</svg>
