<?xml version="1.0" encoding="utf-8"?>
<!-- Generator: Adobe Illustrator 26.2.1, SVG Export Plug-In . SVG Version: 6.00 Build 0)  -->
<svg version="1.1" id="圖層_1" xmlns="http://www.w3.org/2000/svg" xmlns:xlink="http://www.w3.org/1999/xlink" x="0px" y="0px"
	 viewBox="0 0 32 32" enable-background="new 0 0 32 32" xml:space="preserve">
<g>
	<path id="Fax_1_" fill="#C5C5C5" d="M30.7,6.6c-1.3,0-2.6,0-3.9,0c0-1.2,0-2.4,0-3.5c0-0.7-0.6-1.3-1.3-1.3c-6.3,0-12.6,0-18.9,0
		C5.8,1.7,5.2,2.3,5.2,3c0,1.2,0,2.4,0,3.5c-1.3,0-2.6,0-3.9,0C0.6,6.6,0,7.1,0,7.9c0,4.3,0,8.5,0,12.8C0,21.4,0.6,22,1.3,22
		c1.3,0,2.6,0,3.9,0c0,1.5,0,3.1,0,4.6c0,0.8,0,1.5,0,2.3c0,0.4,0.1,0.8,0.4,1.1c0.2,0.1,0.3,0.2,0.5,0.3c0.2,0.1,0.4,0,0.6,0
		c3.1,0,6.2,0,9.3,0c3.1,0,6.2,0,9.3,0c0.2,0,0.4,0,0.6,0c0.2-0.1,0.4-0.2,0.5-0.3c0.3-0.3,0.4-0.6,0.4-1.1c0-0.8,0-1.5,0-2.3
		c0-1.5,0-3.1,0-4.6c1.3,0,2.6,0,3.9,0c0.7,0,1.3-0.6,1.3-1.3c0-4.3,0-8.5,0-12.8C32,7.1,31.4,6.6,30.7,6.6z M3.3,11.2
		c-0.6,0-1.1-0.5-1.1-1.1c0-0.6,0.5-1.1,1.1-1.1S4.4,9.4,4.4,10C4.4,10.7,3.9,11.2,3.3,11.2z M25.5,29H6.5V18.6h18.9L25.5,29
		L25.5,29z M25.5,6.6c-6.3,0-12.6,0-18.9,0c0-0.7,0-1.5,0-2.2C6.5,3.6,7.1,3,7.8,3c5.4,0,10.9,0,16.3,0c0.7,0,1.3,0.6,1.3,1.3
		C25.5,5.1,25.5,5.8,25.5,6.6z"/>
</g>
</svg>
